<svg width="53" height="53" viewBox="0 0 53 53" fill="none" xmlns="http://www.w3.org/2000/svg">
<g id="Dribbble">
<path id="Rectangle" fill-rule="evenodd" clip-rule="evenodd" d="M0.0458984 14.7684V7.41836C0.0458984 5.38871 0.763487 3.6563 2.19866 2.22112C3.63384 0.785948 5.36625 0.0683594 7.3959 0.0683594H44.8704C46.9 0.0683594 48.6325 0.785948 50.0676 2.22112C51.5028 3.6563 52.2204 5.38871 52.2204 7.41836V44.8929C52.2204 46.9225 51.5028 48.6549 50.0676 50.0901C48.6325 51.5253 46.9 52.2429 44.8704 52.2429H7.3959C5.36625 52.2429 3.63384 51.5253 2.19866 50.0901C0.763487 48.6549 0.0458984 46.9225 0.0458984 44.8929V14.7684Z" fill="#F5F6FA"/>
<g id="dribbble-2">
<path id="dribbble-3" fill-rule="evenodd" clip-rule="evenodd" d="M26.2957 41.9002C18.1771 41.9002 11.5957 35.3188 11.5957 27.2002C11.5957 19.0817 18.1771 12.5002 26.2957 12.5002C34.4143 12.5002 40.9957 19.0817 40.9957 27.2002C40.9845 35.3147 34.4093 41.8895 26.2953 41.9002L26.2957 41.9002ZM38.6931 29.2121C36.155 28.474 33.4878 28.291 30.8727 28.6755C31.94 31.5845 32.7564 34.5796 33.3129 37.6278C36.1909 35.6847 38.1388 32.6395 38.6963 29.2121H38.6931ZM31.2024 38.7766C30.6112 35.5262 29.7129 32.3391 28.5196 29.2584L28.4388 29.2825C21.346 31.751 18.8103 36.6629 18.5898 37.1228C22.177 39.9231 27.0009 40.557 31.1898 38.7787L31.2024 38.7766ZM16.9675 35.6163C19.3333 31.7777 22.9319 28.8557 27.1745 27.3286C27.3394 27.274 27.5053 27.2236 27.6701 27.1816C27.3551 26.4655 27.0086 25.7526 26.6506 25.0501C22.4548 26.2506 18.1102 26.8515 13.7461 26.8351L13.7461 27.2173C13.7431 30.3199 14.8928 33.3135 16.9723 35.6169L16.9675 35.6163ZM14.0023 24.6463C17.9211 24.6267 21.8218 24.1131 25.6121 23.1175C24.1918 20.6165 22.638 18.1938 20.9574 15.8598C17.3928 17.5381 14.8197 20.7886 14.0044 24.6432L14.0023 24.6463ZM23.3557 15.014C25.0742 17.3598 26.6382 19.815 28.0377 22.364C30.6217 21.5155 32.9068 19.9412 34.6201 17.829C31.5539 15.1008 27.3457 14.0476 23.3557 15.0098L23.3557 15.014ZM36.0155 19.28C34.1465 21.5093 31.7303 23.2146 29.0036 24.2287C29.2976 24.8293 29.579 25.4351 29.8363 26.0494C29.9339 26.2699 30.02 26.4904 30.1061 26.6983C33.0255 26.3957 35.9737 26.532 38.8526 27.1025C38.8344 24.25 37.8352 21.4905 36.023 19.2875L36.0155 19.28Z" fill="#AAB0B7"/>
</g>
</g>
</svg>
