<svg width="53" height="53" viewBox="0 0 53 53" fill="none" xmlns="http://www.w3.org/2000/svg">
<g id="Facebook">
<path id="Rectangle-2" fill-rule="evenodd" clip-rule="evenodd" d="M0.208008 14.7681V7.41812C0.208008 5.38847 0.925596 3.65606 2.36077 2.22088C3.79595 0.785704 5.52836 0.0681152 7.55801 0.0681152H45.0325C47.0622 0.0681152 48.7946 0.785704 50.2297 2.22088C51.6649 3.65606 52.3825 5.38847 52.3825 7.41812V44.8926C52.3825 46.9223 51.6649 48.6547 50.2297 50.0899C48.7946 51.525 47.0622 52.2426 45.0325 52.2426H7.55801C5.52836 52.2426 3.79595 51.525 2.36077 50.0899C0.925596 48.6547 0.208008 46.9223 0.208008 44.8926V14.7681Z" fill="#F5F6FA"/>
<g id="facebook-2">
<path id="facebook-3" fill-rule="evenodd" clip-rule="evenodd" d="M28.1873 40.8438V27.4363H32.5217L33.1706 22.2105H28.1873V18.8746C28.1873 17.3616 28.5916 16.3305 30.6811 16.3305H33.346V11.6601C32.056 11.5168 30.7589 11.4467 29.461 11.4501C25.619 11.4501 22.9888 13.885 22.9888 18.357V22.2105H18.646V27.4363H22.9909V40.8448L28.1873 40.8438Z" fill="#AAB0B7"/>
</g>
</g>
</svg>
