<svg width="53" height="53" viewBox="0 0 53 53" fill="none" xmlns="http://www.w3.org/2000/svg">
<g id="Twitter">
<path id="Rectangle-3" fill-rule="evenodd" clip-rule="evenodd" d="M0.359375 16.8681V8.46812C0.359375 6.14852 1.17948 4.16862 2.81968 2.52842C4.45988 0.888216 6.43978 0.0681152 8.75938 0.0681152H44.1339C46.4535 0.0681152 48.4334 0.888216 50.0736 2.52842C51.7138 4.16862 52.5339 6.14852 52.5339 8.46812V43.8426C52.5339 46.1622 51.7138 48.1421 50.0736 49.7823C48.4334 51.4225 46.4535 52.2426 44.1339 52.2426H8.75938C6.43978 52.2426 4.45988 51.4225 2.81968 49.7823C1.17948 48.1421 0.359375 46.1622 0.359375 43.8426V16.8681Z" fill="#F5F6FA"/>
<g id="twitter-2">
<g id="Mask group">
<mask id="mask0_135_524" style="mask-type:luminance" maskUnits="userSpaceOnUse" x="12" y="11" width="30" height="30">
<rect id="Rectangle_20" x="12.0459" y="11.45" width="29.4" height="29.4" fill="white"/>
</mask>
<g mask="url(#mask0_135_524)">
<g id="twitter-3">
<path id="Path_104" fill-rule="evenodd" clip-rule="evenodd" d="M41.3892 17.0463C40.2869 17.5298 39.1193 17.8482 37.9242 17.9913C39.1814 17.2358 40.1228 16.0509 40.5744 14.6554C39.3864 15.3469 38.0921 15.8369 36.744 16.1055C35.0532 14.3039 32.4338 13.7172 30.136 14.6254C27.8382 15.5337 26.3279 17.7528 26.3259 20.2236C26.3259 20.6876 26.3781 21.1493 26.4815 21.6009C21.6349 21.3689 17.1161 19.0854 14.0545 15.3211C13.5142 16.2395 13.2323 17.2869 13.2387 18.3525C13.2368 20.3687 14.2429 22.2522 15.9196 23.3716C14.9623 23.3411 14.0262 23.0822 13.1893 22.6165L13.1893 22.6911C13.1876 25.5608 15.2079 28.0339 18.0198 28.6048C17.1357 28.8433 16.2092 28.8792 15.3093 28.7097C16.1034 31.1653 18.3685 32.8463 20.9488 32.895C18.8167 34.5682 16.1842 35.4764 13.4739 35.4738C12.9967 35.4728 12.52 35.4451 12.0459 35.3908C14.8095 37.1585 18.0222 38.0961 21.3027 38.0925C32.3938 38.0925 38.4513 28.9102 38.4513 20.9596C38.4513 20.7034 38.4513 20.4451 38.4334 20.1879C39.616 19.3374 40.6364 18.2815 41.4459 17.0704L41.3892 17.0463Z" fill="#AAB0B7"/>
</g>
</g>
</g>
</g>
</g>
</svg>
