<svg width="53" height="53" viewBox="0 0 53 53" fill="none" xmlns="http://www.w3.org/2000/svg">
<g id="YouTube">
<path id="Rectangle-4" fill-rule="evenodd" clip-rule="evenodd" d="M0.521484 14.7681V7.41812C0.521484 5.38847 1.23907 3.65606 2.67425 2.22088C4.10943 0.785704 5.84184 0.0681152 7.87148 0.0681152H45.346C47.3756 0.0681152 49.108 0.785704 50.5432 2.22088C51.9784 3.65606 52.696 5.38847 52.696 7.41812V44.8926C52.696 46.9223 51.9784 48.6547 50.5432 50.0899C49.108 51.525 47.3756 52.2426 45.346 52.2426H7.87148C5.84184 52.2426 4.10943 51.525 2.67425 50.0899C1.23907 48.6547 0.521484 46.9223 0.521484 44.8926V14.7681Z" fill="#F5F6FA"/>
<g id="youtube-2">
<path id="youtube-3" fill-rule="evenodd" clip-rule="evenodd" d="M40.5223 18.8541C40.3522 18.2383 40.0268 17.6764 39.5773 17.2224C39.1305 16.7703 38.5741 16.4418 37.9624 16.269C35.6713 15.6485 26.4513 15.6485 26.4513 15.6485C26.4513 15.6485 17.2575 15.6327 14.9433 16.2701C14.3316 16.4429 13.7752 16.7714 13.3284 17.2235C12.8788 17.6775 12.5535 18.2393 12.3834 18.8552C11.9491 21.2257 11.735 23.6314 11.7439 26.0414C11.7374 28.4414 11.9521 30.8375 12.3854 33.1987C12.5554 33.8147 12.8808 34.3768 13.3305 34.8309C13.7773 35.283 14.3337 35.6115 14.9454 35.7843C17.2333 36.4059 26.4565 36.4059 26.4565 36.4059C26.4565 36.4059 35.6514 36.4059 37.9677 35.7843C38.5794 35.6115 39.1358 35.283 39.5826 34.8309C40.0321 34.3769 40.3575 33.8151 40.5276 33.1992C40.951 30.8368 41.1559 28.4404 41.1397 26.0403C41.1559 23.6313 40.9493 21.2257 40.5224 18.8544L40.5223 18.8541ZM23.5113 30.4848V21.5808L31.1847 26.0401L23.5113 30.4848Z" fill="#AAB0B7"/>
</g>
</g>
</svg>
